<?xml version="1.0" standalone="no"?>
<!DOCTYPE svg PUBLIC "-//W3C//DTD SVG 20010904//EN"
 "http://www.w3.org/TR/2001/REC-SVG-20010904/DTD/svg10.dtd">
<svg version="1.0" xmlns="http://www.w3.org/2000/svg"
 width="30.000000pt" height="30.000000pt" viewBox="0 0 30.000000 30.000000"
 preserveAspectRatio="xMidYMid meet">

<g transform="translate(0.000000,30.000000) scale(0.100000,-0.100000)"
fill="#000000" stroke="none">
<path d="M105 261 c-74 -33 -96 -133 -41 -190 29 -31 56 -40 56 -21 0 6 -7 10
-15 10 -8 0 -20 10 -26 22 -11 21 -11 22 4 9 9 -7 24 -10 34 -7 15 6 14 10
-10 29 -25 20 -27 26 -22 62 l7 40 63 0 63 0 7 -40 c5 -35 3 -43 -19 -60 -19
-15 -23 -26 -19 -48 7 -34 13 -34 49 4 24 25 29 39 29 79 0 42 -5 54 -31 81
-33 33 -92 46 -129 30z"/>
</g>
</svg>
