<?xml version="1.0" standalone="no"?>
<!DOCTYPE svg PUBLIC "-//W3C//DTD SVG 20010904//EN"
 "http://www.w3.org/TR/2001/REC-SVG-20010904/DTD/svg10.dtd">
<svg version="1.0" xmlns="http://www.w3.org/2000/svg"
 width="50.000000pt" height="50.000000pt" viewBox="0 0 50.000000 50.000000"
 preserveAspectRatio="xMidYMid meet">

<g transform="translate(0.000000,50.000000) scale(0.100000,-0.100000)"
fill="#000000" stroke="none">
<path d="M230 493 c-8 -3 -26 -14 -39 -24 -15 -12 -40 -19 -70 -19 -54 0 -71
-12 -71 -53 0 -19 -9 -38 -25 -53 -14 -13 -25 -29 -25 -36 1 -16 85 -80 94
-71 3 4 6 42 6 85 l0 78 150 0 150 0 0 -86 0 -85 45 32 c51 37 55 56 21 88
-14 13 -22 29 -19 37 3 8 -2 25 -11 39 -14 21 -25 25 -62 25 -32 0 -56 7 -82
25 -39 27 -39 27 -62 18z"/>
<path d="M156 324 c-11 -29 7 -35 95 -32 76 3 84 5 84 23 0 18 -8 20 -86 23
-74 2 -88 0 -93 -14z"/>
<path d="M0 149 c0 -55 5 -109 10 -120 10 -18 23 -19 233 -19 160 0 226 3 235
12 12 12 18 228 6 228 -3 0 -45 -29 -93 -63 -99 -74 -123 -87 -149 -87 -10 0
-66 34 -124 75 -58 41 -108 75 -112 75 -3 0 -6 -45 -6 -101z"/>
<path d="M161 236 c-23 -28 -2 -36 90 -36 88 0 90 1 87 23 -3 20 -9 22 -84 25
-62 2 -84 -1 -93 -12z"/>
</g>
</svg>
